<svg width="48" height="48" viewBox="0 0 48 48" fill="none" xmlns="http://www.w3.org/2000/svg">
<path d="M40.0007 5.33337H8.00065C6.53398 5.33337 5.33398 6.53337 5.33398 8.00004V40C5.33398 41.4667 6.53398 42.6667 8.00065 42.6667H40.0007C41.4673 42.6667 42.6673 41.4667 42.6673 40V8.00004C42.6673 6.53337 41.4673 5.33337 40.0007 5.33337ZM24.0007 12.6667C27.3073 12.6667 30.0007 15.36 30.0007 18.6667C30.0007 21.9734 27.3073 24.6667 24.0007 24.6667C20.694 24.6667 18.0007 21.9734 18.0007 18.6667C18.0007 15.36 20.694 12.6667 24.0007 12.6667ZM36.0007 37.3334H12.0007V35.3334C12.0007 31.3334 20.0007 29.3334 24.0007 29.3334C28.0007 29.3334 36.0007 31.3334 36.0007 35.3334V37.3334Z" fill="#FF0F00"/>
</svg>
