<svg width="20" height="20" viewBox="0 0 20 20" fill="none" xmlns="http://www.w3.org/2000/svg">
<path fill-rule="evenodd" clip-rule="evenodd" d="M9.99992 0.833496C4.93742 0.833496 0.833252 4.93766 0.833252 10.0002C0.833252 15.0627 4.93742 19.1668 9.99992 19.1668C15.0624 19.1668 19.1666 15.0627 19.1666 10.0002C19.1666 4.93766 15.0624 0.833496 9.99992 0.833496ZM10.8333 13.3335C10.8333 13.5545 10.7455 13.7665 10.5892 13.9228C10.4329 14.079 10.2209 14.1668 9.99992 14.1668C9.7789 14.1668 9.56694 14.079 9.41066 13.9228C9.25438 13.7665 9.16658 13.5545 9.16658 13.3335V10.8335H6.66658C6.44557 10.8335 6.23361 10.7457 6.07733 10.5894C5.92105 10.4331 5.83325 10.2212 5.83325 10.0002C5.83325 9.77915 5.92105 9.56719 6.07733 9.41091C6.23361 9.25463 6.44557 9.16683 6.66658 9.16683H9.16658V6.66683C9.16658 6.44582 9.25438 6.23385 9.41066 6.07757C9.56694 5.92129 9.7789 5.8335 9.99992 5.8335C10.2209 5.8335 10.4329 5.92129 10.5892 6.07757C10.7455 6.23385 10.8333 6.44582 10.8333 6.66683V9.16683H13.3333C13.5543 9.16683 13.7662 9.25463 13.9225 9.41091C14.0788 9.56719 14.1666 9.77915 14.1666 10.0002C14.1666 10.2212 14.0788 10.4331 13.9225 10.5894C13.7662 10.7457 13.5543 10.8335 13.3333 10.8335H10.8333V13.3335Z" fill="#FF0F00"/>
</svg>
