<svg width="54" height="54" viewBox="0 0 54 54" fill="none" xmlns="http://www.w3.org/2000/svg">
<path d="M16.6667 43C13.7334 43 11.3601 45.4 11.3601 48.3333C11.3601 51.2667 13.7334 53.6667 16.6667 53.6667C19.6001 53.6667 22.0001 51.2667 22.0001 48.3333C22.0001 45.4 19.6001 43 16.6667 43ZM0.666748 0.333344V5.66668H6.00008L15.6001 25.9067L12.0001 32.44C11.5734 33.1867 11.3334 34.0667 11.3334 35C11.3334 37.9333 13.7334 40.3333 16.6667 40.3333H48.6667V35H17.7867C17.4134 35 17.1201 34.7067 17.1201 34.3333L17.2001 34.0133L19.6001 29.6667H39.4667C41.4667 29.6667 43.2267 28.5733 44.1334 26.92L53.6801 9.61334C53.8934 9.24001 54.0001 8.78668 54.0001 8.33334C54.0001 6.86668 52.8001 5.66668 51.3334 5.66668H11.8934L9.38675 0.333344H0.666748ZM43.3334 43C40.4001 43 38.0267 45.4 38.0267 48.3333C38.0267 51.2667 40.4001 53.6667 43.3334 53.6667C46.2667 53.6667 48.6667 51.2667 48.6667 48.3333C48.6667 45.4 46.2667 43 43.3334 43Z" fill="#FF0F00"/>
</svg>
