<svg width="42" height="42" viewBox="0 0 42 42" fill="none" xmlns="http://www.w3.org/2000/svg">
<path d="M0.142578 5.71401C0.142578 4.23637 0.729566 2.81926 1.77441 1.77441C2.81926 0.729566 4.23637 0.142578 5.71401 0.142578H32.2854C33.7631 0.142578 35.1802 0.729566 36.225 1.77441C37.2699 2.81926 37.8569 4.23637 37.8569 5.71401V19.8569C35.3809 17.9999 32.3183 17.0984 29.2311 17.3178C26.144 17.5372 23.2396 18.8628 21.0512 21.0512C18.8628 23.2396 17.5372 26.144 17.3178 29.2311C17.0984 32.3183 17.9999 35.3809 19.8569 37.8569H5.71401C4.23637 37.8569 2.81926 37.2699 1.77441 36.225C0.729566 35.1802 0.142578 33.7631 0.142578 32.2854V5.71401ZM9.57115 12.1306C8.43451 12.1306 7.34442 12.5821 6.54069 13.3858C5.73696 14.1896 5.28544 15.2797 5.28544 16.4163C5.28544 17.5529 5.73696 18.643 6.54069 19.4468C7.34442 20.2505 8.43451 20.702 9.57115 20.702C10.7078 20.702 11.7979 20.2505 12.6016 19.4468C13.4053 18.643 13.8569 17.5529 13.8569 16.4163C13.8569 15.2797 13.4053 14.1896 12.6016 13.3858C11.7979 12.5821 10.7078 12.1306 9.57115 12.1306ZM5.28544 28.4231C5.28544 29.5598 5.73696 30.6499 6.54069 31.4536C7.34442 32.2573 8.43451 32.7089 9.57115 32.7089C10.7078 32.7089 11.7979 32.2573 12.6016 31.4536C13.4053 30.6499 13.8569 29.5598 13.8569 28.4231C13.8569 27.2865 13.4053 26.1964 12.6016 25.3927C11.7979 24.589 10.7078 24.1374 9.57115 24.1374C8.43451 24.1374 7.34442 24.589 6.54069 25.3927C5.73696 26.1964 5.28544 27.2865 5.28544 28.4231ZM16.8569 12.9997C16.5159 12.9997 16.1888 13.1352 15.9477 13.3763C15.7066 13.6174 15.5711 13.9444 15.5711 14.2854C15.5711 14.6264 15.7066 14.9535 15.9477 15.1946C16.1888 15.4357 16.5159 15.5711 16.8569 15.5711H31.4283C31.7693 15.5711 32.0963 15.4357 32.3374 15.1946C32.5785 14.9535 32.714 14.6264 32.714 14.2854C32.714 13.9444 32.5785 13.6174 32.3374 13.3763C32.0963 13.1352 31.7693 12.9997 31.4283 12.9997H16.8569ZM5.28544 6.65172C5.28544 7.36144 5.86144 7.93744 6.57115 7.93744H31.4283C31.7693 7.93744 32.0963 7.80198 32.3374 7.56086C32.5785 7.31974 32.714 6.99271 32.714 6.65172C32.714 6.31073 32.5785 5.9837 32.3374 5.74258C32.0963 5.50147 31.7693 5.36601 31.4283 5.36601H6.57115C6.23016 5.36601 5.90313 5.50147 5.66201 5.74258C5.42089 5.9837 5.28544 6.31073 5.28544 6.65172Z" fill="#FF0F00"/>
<path d="M41.2857 30.1429C41.2857 33.0981 40.1117 35.9324 38.022 38.022C35.9324 40.1117 33.0981 41.2857 30.1429 41.2857C27.1876 41.2857 24.3534 40.1117 22.2637 38.022C20.174 35.9324 19 33.0981 19 30.1429C19 27.1876 20.174 24.3534 22.2637 22.2637C24.3534 20.174 27.1876 19 30.1429 19C33.0981 19 35.9324 20.174 38.022 22.2637C40.1117 24.3534 41.2857 27.1876 41.2857 30.1429ZM30.1429 22.4286C29.9155 22.4286 29.6975 22.5189 29.5368 22.6796C29.376 22.8404 29.2857 23.0584 29.2857 23.2857V29.2857H23.2857C23.0584 29.2857 22.8404 29.376 22.6796 29.5368C22.5189 29.6975 22.4286 29.9155 22.4286 30.1429C22.4286 30.3702 22.5189 30.5882 22.6796 30.7489C22.8404 30.9097 23.0584 31 23.2857 31H29.2857V37C29.2857 37.2273 29.376 37.4453 29.5368 37.6061C29.6975 37.7668 29.9155 37.8571 30.1429 37.8571C30.3702 37.8571 30.5882 37.7668 30.7489 37.6061C30.9097 37.4453 31 37.2273 31 37V31H37C37.2273 31 37.4453 30.9097 37.6061 30.7489C37.7668 30.5882 37.8571 30.3702 37.8571 30.1429C37.8571 29.9155 37.7668 29.6975 37.6061 29.5368C37.4453 29.376 37.2273 29.2857 37 29.2857H31V23.2857C31 23.0584 30.9097 22.8404 30.7489 22.6796C30.5882 22.5189 30.3702 22.4286 30.1429 22.4286Z" fill="#FF0F00"/>
</svg>
