<svg width="48" height="48" viewBox="0 0 48 48" fill="none" xmlns="http://www.w3.org/2000/svg">
<path d="M42 7.5H34.5C34.1022 7.5 33.7206 7.65804 33.4393 7.93934C33.158 8.22064 33 8.60218 33 9C33 9.39782 33.158 9.77936 33.4393 10.0607C33.7206 10.342 34.1022 10.5 34.5 10.5H40.5V16.5C40.5 16.8978 40.658 17.2794 40.9393 17.5607C41.2206 17.842 41.6022 18 42 18C42.3978 18 42.7794 17.842 43.0607 17.5607C43.342 17.2794 43.5 16.8978 43.5 16.5V9C43.5 8.60218 43.3419 8.22066 43.0606 7.93936C42.7793 7.65806 42.3978 7.50002 42 7.5Z" fill="#FF0F00"/>
<path d="M13.5 37.5H7.5V31.5C7.5 31.1022 7.34196 30.7206 7.06066 30.4393C6.77936 30.158 6.39782 30 6 30C5.60218 30 5.22064 30.158 4.93934 30.4393C4.65804 30.7206 4.5 31.1022 4.5 31.5V39C4.50002 39.3978 4.65806 39.7793 4.93936 40.0606C5.22066 40.3419 5.60218 40.5 6 40.5H13.5C13.8978 40.5 14.2794 40.342 14.5607 40.0607C14.842 39.7794 15 39.3978 15 39C15 38.6022 14.842 38.2206 14.5607 37.9393C14.2794 37.658 13.8978 37.5 13.5 37.5Z" fill="#FF0F00"/>
<path d="M42 30C41.6022 30 41.2207 30.1581 40.9394 30.4394C40.6581 30.7207 40.5 31.1022 40.5 31.5V37.5H34.5C34.1022 37.5 33.7206 37.658 33.4393 37.9393C33.158 38.2206 33 38.6022 33 39C33 39.3978 33.158 39.7794 33.4393 40.0607C33.7206 40.342 34.1022 40.5 34.5 40.5H42C42.3978 40.5 42.7793 40.3419 43.0606 40.0606C43.3419 39.7793 43.5 39.3978 43.5 39V31.5C43.5 31.1022 43.3419 30.7207 43.0606 30.4394C42.7793 30.1581 42.3978 30 42 30Z" fill="#FF0F00"/>
<path d="M6 18C6.39782 18 6.77934 17.8419 7.06064 17.5606C7.34194 17.2793 7.49998 16.8978 7.5 16.5V10.5H13.5C13.8978 10.5 14.2794 10.342 14.5607 10.0607C14.842 9.77936 15 9.39782 15 9C15 8.60218 14.842 8.22064 14.5607 7.93934C14.2794 7.65804 13.8978 7.5 13.5 7.5H6C5.60218 7.50002 5.22066 7.65806 4.93936 7.93936C4.65806 8.22066 4.50002 8.60218 4.5 9V16.5C4.50002 16.8978 4.65806 17.2793 4.93936 17.5606C5.22066 17.8419 5.60218 18 6 18Z" fill="#FF0F00"/>
<path d="M15 15C14.6022 15 14.2207 15.1581 13.9394 15.4394C13.6581 15.7207 13.5 16.1022 13.5 16.5V31.5C13.5 31.8978 13.658 32.2794 13.9393 32.5607C14.2206 32.842 14.6022 33 15 33C15.3978 33 15.7794 32.842 16.0607 32.5607C16.342 32.2794 16.5 31.8978 16.5 31.5V16.5C16.5 16.1022 16.3419 15.7207 16.0606 15.4394C15.7793 15.1581 15.3978 15 15 15Z" fill="#FF0F00"/>
<path d="M34.5 31.5V16.5C34.5 16.1022 34.342 15.7206 34.0607 15.4393C33.7794 15.158 33.3978 15 33 15C32.6022 15 32.2206 15.158 31.9393 15.4393C31.658 15.7206 31.5 16.1022 31.5 16.5V31.5C31.5 31.8978 31.658 32.2794 31.9393 32.5607C32.2206 32.842 32.6022 33 33 33C33.3978 33 33.7794 32.842 34.0607 32.5607C34.342 32.2794 34.5 31.8978 34.5 31.5Z" fill="#FF0F00"/>
<path d="M27 15C26.6022 15 26.2207 15.1581 25.9394 15.4394C25.6581 15.7207 25.5 16.1022 25.5 16.5V31.5C25.5 31.8978 25.658 32.2794 25.9393 32.5607C26.2206 32.842 26.6022 33 27 33C27.3978 33 27.7794 32.842 28.0607 32.5607C28.342 32.2794 28.5 31.8978 28.5 31.5V16.5C28.5 16.1022 28.3419 15.7207 28.0606 15.4394C27.7793 15.1581 27.3978 15 27 15Z" fill="#FF0F00"/>
<path d="M21 15C20.6022 15 20.2207 15.1581 19.9394 15.4394C19.6581 15.7207 19.5 16.1022 19.5 16.5V31.5C19.5 31.8978 19.658 32.2794 19.9393 32.5607C20.2206 32.842 20.6022 33 21 33C21.3978 33 21.7794 32.842 22.0607 32.5607C22.342 32.2794 22.5 31.8978 22.5 31.5V16.5C22.5 16.1022 22.3419 15.7207 22.0606 15.4394C21.7793 15.1581 21.3978 15 21 15Z" fill="#FF0F00"/>
</svg>
