<svg width="30" height="44" viewBox="0 0 30 44" fill="none" xmlns="http://www.w3.org/2000/svg">
<path d="M9 3.5H21C21.3978 3.5 21.7794 3.34196 22.0607 3.06066C22.342 2.77936 22.5 2.39782 22.5 2C22.5 1.60218 22.342 1.22064 22.0607 0.93934C21.7794 0.658035 21.3978 0.5 21 0.5H9C8.60218 0.5 8.22064 0.658035 7.93934 0.93934C7.65804 1.22064 7.5 1.60218 7.5 2C7.5 2.39782 7.65804 2.77936 7.93934 3.06066C8.22064 3.34196 8.60218 3.5 9 3.5Z" fill="#FF0F00"/>
<path d="M25.5 6.5H4.5C3.30694 6.50136 2.16314 6.97591 1.31953 7.81953C0.475909 8.66314 0.0013647 9.80694 0 11V39.5C0.0013647 40.6931 0.475909 41.8369 1.31953 42.6805C2.16314 43.5241 3.30694 43.9986 4.5 44H25.5C26.6931 43.9986 27.8369 43.5241 28.6805 42.6805C29.5241 41.8369 29.9986 40.6931 30 39.5V11C29.9986 9.80694 29.5241 8.66314 28.6805 7.81953C27.8369 6.97591 26.6931 6.50136 25.5 6.5ZM13.5 16.25C13.5 15.8522 13.658 15.4706 13.9393 15.1893C14.2206 14.908 14.6022 14.75 15 14.75C15.3978 14.75 15.7794 14.908 16.0607 15.1893C16.342 15.4706 16.5 15.8522 16.5 16.25V26.75C16.5 27.1478 16.342 27.5294 16.0607 27.8107C15.7794 28.092 15.3978 28.25 15 28.25C14.6022 28.25 14.2206 28.092 13.9393 27.8107C13.658 27.5294 13.5 27.1478 13.5 26.75V16.25ZM15 35.75C14.555 35.75 14.12 35.618 13.75 35.3708C13.38 35.1236 13.0916 34.7722 12.9213 34.361C12.751 33.9499 12.7064 33.4975 12.7932 33.061C12.88 32.6246 13.0943 32.2237 13.409 31.909C13.7237 31.5943 14.1246 31.38 14.561 31.2932C14.9975 31.2064 15.4499 31.251 15.861 31.4213C16.2722 31.5916 16.6236 31.88 16.8708 32.25C17.118 32.62 17.25 33.055 17.25 33.5C17.25 34.0967 17.0129 34.669 16.591 35.091C16.169 35.5129 15.5967 35.75 15 35.75Z" fill="#FF0F00"/>
</svg>
