<svg width="34" height="41" viewBox="0 0 34 41" fill="none" xmlns="http://www.w3.org/2000/svg">
<path d="M32 0.5H6.5C4.90926 0.50182 3.38419 1.13454 2.25937 2.25937C1.13454 3.38419 0.50182 4.90926 0.5 6.5V39.5C0.500019 39.8978 0.65806 40.2793 0.939361 40.5606C1.22066 40.8419 1.60218 41 2 41H29C29.3978 41 29.7794 40.842 30.0607 40.5607C30.342 40.2794 30.5 39.8978 30.5 39.5C30.5 39.1022 30.342 38.7206 30.0607 38.4393C29.7794 38.158 29.3978 38 29 38H3.5C3.50091 37.2046 3.81727 36.4421 4.37968 35.8797C4.9421 35.3173 5.70463 35.0009 6.5 35H32C32.3978 35 32.7793 34.8419 33.0606 34.5606C33.3419 34.2793 33.5 33.8978 33.5 33.5V2C33.5 1.60218 33.3419 1.22066 33.0606 0.939361C32.7793 0.658061 32.3978 0.500019 32 0.5ZM17.0005 3.5H27.5005V18.5002L22.699 14.9C22.5691 14.8026 22.4113 14.75 22.249 14.75C22.0867 14.75 21.9288 14.8026 21.799 14.9L17.0005 18.4998V3.5Z" fill="#FF0F00"/>
</svg>
