<svg width="66" height="74" viewBox="0 0 66 74" fill="none" xmlns="http://www.w3.org/2000/svg">
<path d="M47.6667 0.333336L66 18.6667V70.0293C65.999 70.9944 65.615 71.9195 64.9323 72.6015C64.2496 73.2836 63.324 73.6667 62.359 73.6667H3.641C2.67805 73.66 1.7564 73.2747 1.07513 72.5941C0.393866 71.9135 0.00768038 70.9923 0 70.0293V3.97067C0 1.96134 1.63167 0.333336 3.641 0.333336H47.6667ZM33 35.1667C35.4312 35.1667 37.7627 34.2009 39.4818 32.4818C41.2009 30.7627 42.1667 28.4312 42.1667 26C42.1667 23.5689 41.2009 21.2373 39.4818 19.5182C37.7627 17.7991 35.4312 16.8333 33 16.8333C30.5688 16.8333 28.2373 17.7991 26.5182 19.5182C24.7991 21.2373 23.8333 23.5689 23.8333 26C23.8333 28.4312 24.7991 30.7627 26.5182 32.4818C28.2373 34.2009 30.5688 35.1667 33 35.1667ZM16.599 55.3333H49.401C48.9565 51.2941 47.0372 47.561 44.0107 44.8493C40.9843 42.1376 37.0636 40.6381 33 40.6381C28.9364 40.6381 25.0157 42.1376 21.9893 44.8493C18.9628 47.561 17.0435 51.2941 16.599 55.3333Z" fill="#00478B"/>
</svg>
