<svg width="48" height="48" viewBox="0 0 48 48" fill="none" xmlns="http://www.w3.org/2000/svg">
<path d="M18.7498 21.8348C18.9778 21.7032 19.1671 21.5139 19.2988 21.2858C19.4305 21.0578 19.4998 20.7992 19.4998 20.5359V7.02417C19.4998 6.78421 19.4422 6.54777 19.3319 6.33468C19.2215 6.12158 19.0617 5.93806 18.8658 5.79952C18.6699 5.66098 18.4436 5.57146 18.2059 5.53847C17.9683 5.50549 17.7261 5.53 17.4999 5.60995C13.121 7.16318 9.43944 10.2268 7.11635 14.2505C4.79326 18.2741 3.98089 22.9943 4.82515 27.5631C4.86874 27.7992 4.96839 28.0214 5.11571 28.211C5.26304 28.4007 5.45373 28.5521 5.67176 28.6527C5.88979 28.7533 6.12878 28.8001 6.36865 28.7891C6.60851 28.7781 6.84223 28.7097 7.05016 28.5896L18.7498 21.8348ZM16.4998 9.29797V19.6698L7.52183 24.8531C7.50737 24.5692 7.5001 24.2847 7.50004 23.9999C7.50335 20.9587 8.34516 17.9774 9.93292 15.3836C11.5207 12.7899 13.7929 10.6841 16.4998 9.29797Z" fill="#FF0F00"/>
<path d="M40.9264 14.3248C40.9138 14.2998 40.9023 14.2745 40.8881 14.25C40.869 14.2169 40.8477 14.1858 40.8265 14.1548C39.1076 11.2178 36.6503 8.78153 33.6986 7.08786C30.747 5.3942 27.4036 4.50205 24.0006 4.5C23.6028 4.5 23.2212 4.65804 22.9399 4.93934C22.6586 5.22065 22.5006 5.60218 22.5006 6V23.134L7.66209 31.701C7.31758 31.8999 7.06619 32.2275 6.96323 32.6118C6.86026 32.996 6.91415 33.4055 7.11305 33.75C7.11936 33.7609 7.12728 33.7702 7.13383 33.7809C7.1504 33.8146 7.16686 33.8482 7.1862 33.8811C9.3551 37.5706 12.6775 40.4442 16.641 42.0589C20.6045 43.6735 24.9892 43.9395 29.1188 42.8158C33.2485 41.6921 36.8938 39.2412 39.4928 35.8409C42.0918 32.4406 43.5001 28.2798 43.5006 24C43.5047 20.6051 42.6171 17.2688 40.9264 14.3248Z" fill="#FF0F00"/>
</svg>
