<svg width="48" height="48" viewBox="0 0 48 48" fill="none" xmlns="http://www.w3.org/2000/svg">
<path d="M37.5 6H33V4.5C33 4.10218 32.8419 3.72066 32.5606 3.43936C32.2793 3.15806 31.8978 3.00002 31.5 3H16.5C16.1022 3.00002 15.7207 3.15806 15.4394 3.43936C15.1581 3.72066 15 4.10218 15 4.5V6H10.5C9.70463 6.00091 8.9421 6.31727 8.37968 6.87968C7.81727 7.4421 7.50091 8.20463 7.5 9V40.5C7.50091 41.2954 7.81727 42.0579 8.37968 42.6203C8.9421 43.1827 9.70463 43.4991 10.5 43.5H37.5C38.2954 43.4991 39.0579 43.1827 39.6203 42.6203C40.1827 42.0579 40.4991 41.2954 40.5 40.5V9C40.4991 8.20463 40.1827 7.4421 39.6203 6.87968C39.0579 6.31727 38.2954 6.00091 37.5 6ZM18 6H30V10.5H18V6ZM30 30H18C17.6022 30 17.2206 29.842 16.9393 29.5607C16.658 29.2794 16.5 28.8978 16.5 28.5C16.5 28.1022 16.658 27.7206 16.9393 27.4393C17.2206 27.158 17.6022 27 18 27H30C30.3978 27 30.7794 27.158 31.0607 27.4393C31.342 27.7206 31.5 28.1022 31.5 28.5C31.5 28.8978 31.342 29.2794 31.0607 29.5607C30.7794 29.842 30.3978 30 30 30ZM30 24H18C17.6022 24 17.2206 23.842 16.9393 23.5607C16.658 23.2794 16.5 22.8978 16.5 22.5C16.5 22.1022 16.658 21.7206 16.9393 21.4393C17.2206 21.158 17.6022 21 18 21H30C30.3978 21 30.7794 21.158 31.0607 21.4393C31.342 21.7206 31.5 22.1022 31.5 22.5C31.5 22.8978 31.342 23.2794 31.0607 23.5607C30.7794 23.842 30.3978 24 30 24Z" fill="#FF0F00"/>
</svg>
