<svg width="42" height="35" viewBox="0 0 42 35" fill="none" xmlns="http://www.w3.org/2000/svg">
<path d="M39.75 31.5H38.25V1.5C38.25 1.10218 38.092 0.720648 37.8107 0.439344C37.5294 0.158041 37.1478 3.97818e-06 36.75 0H26.25C25.8522 3.97818e-06 25.4706 0.158041 25.1893 0.439344C24.908 0.720648 24.75 1.10218 24.75 1.5V9H15.75C15.3522 9 14.9706 9.15804 14.6893 9.43934C14.408 9.72065 14.25 10.1022 14.25 10.5V18H5.25C4.85218 18 4.47065 18.158 4.18934 18.4393C3.90804 18.7206 3.75 19.1022 3.75 19.5V31.5H2.25C1.85218 31.5 1.47064 31.658 1.18934 31.9393C0.908035 32.2206 0.75 32.6022 0.75 33C0.75 33.3978 0.908035 33.7794 1.18934 34.0607C1.47064 34.342 1.85218 34.5 2.25 34.5H39.75C40.1478 34.5 40.5294 34.342 40.8107 34.0607C41.092 33.7794 41.25 33.3978 41.25 33C41.25 32.6022 41.092 32.2206 40.8107 31.9393C40.5294 31.658 40.1478 31.5 39.75 31.5ZM17.25 12H24.75V31.5H17.25V12ZM6.75 21H14.25V31.5H6.75V21Z" fill="#FF0F00"/>
</svg>
