<svg width="28" height="28" viewBox="0 0 28 28" fill="none" xmlns="http://www.w3.org/2000/svg">
<path d="M23.3335 4.66699H4.66683C3.38 4.66699 2.3335 5.71349 2.3335 7.00033V21.0003C2.3335 22.2872 3.38 23.3337 4.66683 23.3337H23.3335C24.6203 23.3337 25.6668 22.2872 25.6668 21.0003V7.00033C25.6668 5.71349 24.6203 4.66699 23.3335 4.66699ZM10.1677 9.33366C11.5105 9.33366 12.501 10.3242 12.501 11.667C12.501 13.0098 11.5105 14.0003 10.1677 14.0003C8.82483 14.0003 7.83433 13.0098 7.83433 11.667C7.83433 10.3242 8.82366 9.33366 10.1677 9.33366ZM14.5018 18.667H5.8335V18.1245C5.8335 16.5227 7.78883 14.8753 10.1677 14.8753C12.5465 14.8753 14.5018 16.5227 14.5018 18.1245V18.667ZM22.1668 17.5003H17.5002V15.167H22.1668V17.5003ZM22.1668 12.8337H16.3335V10.5003H22.1668V12.8337Z" fill="#0072BC"/>
</svg>
