<svg width="36" height="40" viewBox="0 0 36 40" fill="none" xmlns="http://www.w3.org/2000/svg">
<path d="M0 24L8 29L14 22L20 30L24 25L30 26L24 20L20 25L14 15L7 22.5L0 16V1.984C0 0.91 0.894 0 1.996 0H22V12C22 12.5304 22.2107 13.0391 22.5858 13.4142C22.9609 13.7893 23.4696 14 24 14H36V37.986C36.0018 38.2486 35.9519 38.5091 35.8531 38.7524C35.7543 38.9958 35.6085 39.2173 35.4241 39.4043C35.2397 39.5913 35.0203 39.7402 34.7783 39.8424C34.5364 39.9446 34.2766 39.9982 34.014 40H1.986C1.45963 40 0.954782 39.791 0.582393 39.419C0.210003 39.047 0.000530084 38.5424 0 38.016V24ZM36 10H26V0.00600004L36 10Z" fill="#FF0F00"/>
</svg>
