<svg width="36" height="36" viewBox="0 0 36 36" fill="none" xmlns="http://www.w3.org/2000/svg">
<path d="M34.8027 13.5623L21.183 27.1818C20.7661 27.601 20.2702 27.9334 19.724 28.1596C19.1778 28.3859 18.5922 28.5016 18.001 28.5H12.001C10.8079 28.4987 9.66409 28.0241 8.82046 27.1805C7.97684 26.3369 7.5023 25.1931 7.50097 24V18C7.49935 17.4088 7.61501 16.8232 7.84124 16.2771C8.06748 15.7309 8.3998 15.235 8.81896 14.8182L22.4424 1.19476C22.3771 0.860301 22.1983 0.558669 21.9361 0.34094C21.674 0.123212 21.3447 0.00276727 21.0039 0H3.00098C2.20557 0.000785296 1.44296 0.317108 0.880524 0.879547C0.318085 1.44199 0.00176186 2.20459 0.000976562 3V33C0.00176235 33.7954 0.318085 34.558 0.880524 35.1205C1.44296 35.6829 2.20557 35.9992 3.00098 36H33.001C33.7964 35.9992 34.559 35.6829 35.1214 35.1205C35.6839 34.558 36.0002 33.7954 36.001 33V15.0015C35.9982 14.6601 35.8774 14.3302 35.659 14.0678C35.4405 13.8054 35.138 13.6268 34.8027 13.5623Z" fill="#FF0F00"/>
</svg>
