<svg width="48" height="48" viewBox="0 0 48 48" fill="none" xmlns="http://www.w3.org/2000/svg">
<path d="M43.0607 10.9394L37.0607 4.93938C36.9214 4.80008 36.7561 4.68958 36.5741 4.61419C36.3921 4.5388 36.197 4.5 36 4.5C35.803 4.5 35.6079 4.5388 35.4259 4.61419C35.2439 4.68958 35.0786 4.80008 34.9393 4.93938L16.9393 22.9394C16.658 23.2207 16.5 23.6022 16.5 24V30C16.5 30.3978 16.658 30.7794 16.9393 31.0607C17.2206 31.342 17.6022 31.5 18 31.5H24C24.3978 31.5 24.7794 31.342 25.0607 31.0607L43.0607 13.0607C43.342 12.7794 43.5 12.3978 43.5 12C43.5 11.6022 43.342 11.2207 43.0607 10.9394ZM37.5 14.3787L33.6214 10.5L36 8.12135L39.8787 12L37.5 14.3787Z" fill="#FF0F00"/>
<path d="M40.8027 19.5623L27.183 33.1818C26.7661 33.601 26.2702 33.9334 25.724 34.1596C25.1778 34.3859 24.5922 34.5016 24.001 34.5H18.001C16.8079 34.4987 15.6641 34.0241 14.8205 33.1805C13.9768 32.3369 13.5023 31.1931 13.501 30V24C13.4994 23.4088 13.615 22.8232 13.8412 22.2771C14.0675 21.7309 14.3998 21.235 14.819 20.8182L28.4424 7.19476C28.3771 6.8603 28.1983 6.55867 27.9361 6.34094C27.674 6.12321 27.3447 6.00277 27.0039 6H9.00098C8.20557 6.00079 7.44296 6.31711 6.88052 6.87955C6.31808 7.44199 6.00176 8.20459 6.00098 9V39C6.00176 39.7954 6.31809 40.558 6.88052 41.1205C7.44296 41.6829 8.20557 41.9992 9.00098 42H39.001C39.7964 41.9992 40.559 41.6829 41.1214 41.1205C41.6839 40.558 42.0002 39.7954 42.001 39V21.0015C41.9982 20.6601 41.8774 20.3302 41.659 20.0678C41.4405 19.8054 41.138 19.6268 40.8027 19.5623Z" fill="#FF0F00"/>
</svg>
