<svg width="24" height="20" viewBox="0 0 24 20" fill="none" xmlns="http://www.w3.org/2000/svg">
<path d="M5.89121 11.3029C5.89121 9.73941 4.5523 8.43648 2.94561 8.43648C1.30544 8.43648 0 9.73941 0 11.3029C0 12.8664 1.30544 14.1694 2.94561 14.1694C4.5523 14.1694 5.89121 12.8664 5.89121 11.3029ZM14.9289 11.3029C14.9289 9.73941 13.59 8.43648 11.9833 8.43648C10.3766 8.43648 9.03766 9.73941 9.03766 11.3029C9.03766 12.8664 10.3766 14.1694 11.9833 14.1694C13.59 14.1694 14.9289 12.8664 14.9289 11.3029ZM24 11.3029C24 9.73941 22.6946 8.43648 21.0544 8.43648C19.4477 8.43648 18.1088 9.73941 18.1088 11.3029C18.1088 12.8664 19.4477 14.1694 21.0544 14.1694C22.6946 14.1694 24 12.8664 24 11.3029Z" fill="#C2B8B8"/>
</svg>
