<svg width="48" height="48" viewBox="0 0 48 48" fill="none" xmlns="http://www.w3.org/2000/svg">
<path d="M44.4414 19.2588C44.3385 18.8258 44.1408 18.4211 43.8625 18.0738C43.5843 17.7265 43.2324 17.4453 42.8323 17.2504L40.1126 15.9057L39.0669 14.0942L39.2621 11.0664C39.2934 10.6225 39.2258 10.1772 39.0642 9.76257C38.9025 9.34796 38.6509 8.97439 38.3274 8.6688C36.0014 6.46405 33.1878 4.83958 30.1154 3.92755C29.689 3.80024 29.2396 3.76913 28.7997 3.83647C28.3598 3.9038 27.9403 4.0679 27.5714 4.31693L25.0471 5.99976H22.9553L20.431 4.31702C20.0622 4.06783 19.6427 3.90362 19.2028 3.83623C18.7628 3.76885 18.3134 3.79998 17.887 3.92737C14.8147 4.83939 12.0011 6.46383 9.67507 8.66852C9.35151 8.97411 9.09981 9.34772 8.93815 9.76238C8.77648 10.177 8.70888 10.6224 8.74023 11.0664L8.93542 14.094L7.88952 15.9055L5.16985 17.2503C4.76975 17.4451 4.41788 17.7263 4.13961 18.0736C3.86135 18.4209 3.66363 18.8257 3.56073 19.2586C2.81439 22.3754 2.81439 25.6243 3.56073 28.7411C3.66363 29.1741 3.86134 29.5788 4.13961 29.9261C4.41787 30.2734 4.76975 30.5546 5.16985 30.7495L7.88952 32.0942L8.93524 33.9057L8.74005 36.9335C8.70875 37.3774 8.77635 37.8227 8.93798 38.2373C9.09961 38.6519 9.35123 39.0255 9.67471 39.3311C12.0007 41.5358 14.8144 43.1603 17.8867 44.0723C18.3131 44.1998 18.7625 44.2309 19.2025 44.1636C19.6424 44.0963 20.0619 43.9321 20.4307 43.683L22.9551 42.0001H25.0469L27.5712 43.6829C28.0701 44.018 28.6571 44.1976 29.2581 44.1991C29.5484 44.1992 29.8372 44.1565 30.1151 44.0725C33.1874 43.1605 36.0011 41.5361 38.327 39.3314C38.6506 39.0258 38.9023 38.6522 39.064 38.2375C39.2256 37.8228 39.2932 37.3775 39.2619 36.9335L39.0667 33.9059L40.1126 32.0944L42.8323 30.7496C43.2324 30.5547 43.5842 30.2735 43.8625 29.9262C44.1408 29.579 44.3385 29.1742 44.4414 28.7413C45.1877 25.6245 45.1877 22.3756 44.4414 19.2588H44.4414ZM33.0012 23.9999C33.0012 25.78 32.4733 27.52 31.4844 29.0001C30.4954 30.4801 29.0898 31.6337 27.4453 32.3149C25.8008 32.996 23.9912 33.1743 22.2453 32.827C20.4995 32.4797 18.8959 31.6226 17.6372 30.3639C16.3785 29.1052 15.5214 27.5016 15.1741 25.7558C14.8268 24.0099 15.005 22.2003 15.6862 20.5558C16.3674 18.9113 17.521 17.5057 19.001 16.5167C20.4811 15.5278 22.2211 14.9999 24.0012 14.9999C26.3873 15.0026 28.6749 15.9517 30.3621 17.639C32.0494 19.3262 32.9985 21.6138 33.0012 23.9999Z" fill="#FF0F00"/>
</svg>
