<svg width="60" height="44" viewBox="0 0 60 44" fill="none" xmlns="http://www.w3.org/2000/svg">
<path d="M51.3334 11.3333H43.3334V0.666656H6.00008C3.06675 0.666656 0.666748 3.06666 0.666748 5.99999V35.3333H6.00008C6.00008 39.76 9.57341 43.3333 14.0001 43.3333C18.4267 43.3333 22.0001 39.76 22.0001 35.3333H38.0001C38.0001 39.76 41.5734 43.3333 46.0001 43.3333C50.4267 43.3333 54.0001 39.76 54.0001 35.3333H59.3334V22L51.3334 11.3333ZM14.0001 39.3333C11.7867 39.3333 10.0001 37.5467 10.0001 35.3333C10.0001 33.12 11.7867 31.3333 14.0001 31.3333C16.2134 31.3333 18.0001 33.12 18.0001 35.3333C18.0001 37.5467 16.2134 39.3333 14.0001 39.3333ZM50.0001 15.3333L55.2267 22H43.3334V15.3333H50.0001ZM46.0001 39.3333C43.7867 39.3333 42.0001 37.5467 42.0001 35.3333C42.0001 33.12 43.7867 31.3333 46.0001 31.3333C48.2134 31.3333 50.0001 33.12 50.0001 35.3333C50.0001 37.5467 48.2134 39.3333 46.0001 39.3333Z" fill="#FF0F00"/>
</svg>
