<svg width="38" height="42" viewBox="0 0 38 42" fill="none" xmlns="http://www.w3.org/2000/svg">
<path d="M36.2262 9.51367L20.4762 0.611549C20.0254 0.358494 19.517 0.225586 19 0.225586C18.483 0.225586 17.9747 0.358494 17.5238 0.611549L1.77381 9.51367C1.31165 9.77546 0.927144 10.1551 0.659464 10.6138C0.391783 11.0726 0.250497 11.5942 0.25 12.1253V29.875C0.250497 30.4061 0.391783 30.9277 0.659464 31.3865C0.927144 31.8452 1.31165 32.2248 1.77381 32.4866L17.5238 41.3888C17.9746 41.6419 18.483 41.7748 19 41.7748C19.517 41.7748 20.0254 41.6419 20.4762 41.3888L36.2262 32.4866C36.6884 32.2248 37.0729 31.8452 37.3405 31.3864C37.6082 30.9277 37.7495 30.4061 37.75 29.875V12.1253C37.7495 11.5942 37.6082 11.0726 37.3405 10.6139C37.0729 10.1551 36.6884 9.77546 36.2262 9.51367ZM19 27.7502C17.665 27.7502 16.3599 27.3543 15.2499 26.6126C14.1399 25.8709 13.2747 24.8167 12.7638 23.5833C12.2529 22.3499 12.1193 20.9927 12.3797 19.6833C12.6402 18.3739 13.283 17.1712 14.227 16.2272C15.171 15.2832 16.3738 14.6403 17.6831 14.3799C18.9925 14.1194 20.3497 14.2531 21.5831 14.764C22.8165 15.2749 23.8707 16.14 24.6124 17.2501C25.3541 18.3601 25.75 19.6651 25.75 21.0002C25.748 22.7897 25.0362 24.5055 23.7707 25.7709C22.5053 27.0363 20.7896 27.7481 19 27.7502Z" fill="#FF0F00"/>
</svg>
