<svg width="26" height="26" viewBox="0 0 26 26" fill="none" xmlns="http://www.w3.org/2000/svg">
<path d="M1 10.6349C1 9.6339 1.4993 8.69882 2.33115 8.14196L13 1L23.6689 8.14196C24.5007 8.69882 25 9.6339 25 10.6349V22.5C25 23.8807 23.8807 25 22.5 25H17.6C17.0477 25 16.6 24.5523 16.6 24V17.3182C16.6 17.042 16.3761 16.8182 16.1 16.8182H9.9C9.62386 16.8182 9.4 17.042 9.4 17.3182V24C9.4 24.5523 8.95229 25 8.4 25H3.5C2.11929 25 1 23.8807 1 22.5V10.6349Z" stroke="white" stroke-width="2" stroke-linecap="round" stroke-linejoin="round"/>
</svg>
