<svg width="54" height="54" viewBox="0 0 54 54" fill="none" xmlns="http://www.w3.org/2000/svg">
<path d="M5.66683 11H0.333496V48.3333C0.333496 51.2667 2.7335 53.6667 5.66683 53.6667H43.0002V48.3333H5.66683V11ZM48.3335 0.333344H16.3335C13.4002 0.333344 11.0002 2.73334 11.0002 5.66668V37.6667C11.0002 40.6 13.4002 43 16.3335 43H48.3335C51.2668 43 53.6668 40.6 53.6668 37.6667V5.66668C53.6668 2.73334 51.2668 0.333344 48.3335 0.333344ZM45.6668 24.3333H19.0002V19H45.6668V24.3333ZM35.0002 35H19.0002V29.6667H35.0002V35ZM45.6668 13.6667H19.0002V8.33334H45.6668V13.6667Z" fill="#FF0F00"/>
</svg>
