<svg width="40" height="34" viewBox="0 0 40 34" fill="none" xmlns="http://www.w3.org/2000/svg">
<path d="M38 30.5H3.5V23.6811L14.0732 14.4296L25.1006 22.7C25.3757 22.9063 25.7134 23.0119 26.057 22.9989C26.4007 22.986 26.7294 22.8553 26.9882 22.6288L38.9882 12.1288C39.1367 11.9992 39.2583 11.8416 39.3458 11.665C39.4334 11.4884 39.4853 11.2962 39.4985 11.0995C39.5117 10.9028 39.4861 10.7055 39.423 10.5187C39.3599 10.3319 39.2606 10.1594 39.1308 10.0111C39.001 9.86272 38.8432 9.74141 38.6665 9.65407C38.4898 9.56673 38.2976 9.51509 38.1008 9.50209C37.9041 9.4891 37.7068 9.515 37.5201 9.57833C37.3334 9.64166 37.1611 9.74116 37.0129 9.87115L25.9279 19.5704L14.9005 11.3C14.6254 11.0937 14.2877 10.9881 13.9441 11.0011C13.6004 11.014 13.2717 11.1447 13.0129 11.3712L3.5 19.6949V2C3.5 1.60218 3.34196 1.22064 3.06066 0.93934C2.77936 0.658036 2.39782 0.5 2 0.5C1.60218 0.5 1.22064 0.658036 0.93934 0.93934C0.658035 1.22064 0.5 1.60218 0.5 2V32C0.500019 32.3978 0.658061 32.7793 0.939361 33.0606C1.22066 33.3419 1.60218 33.5 2 33.5H38C38.3978 33.5 38.7794 33.342 39.0607 33.0607C39.342 32.7794 39.5 32.3978 39.5 32C39.5 31.6022 39.342 31.2206 39.0607 30.9393C38.7794 30.658 38.3978 30.5 38 30.5Z" fill="#FF0F00"/>
</svg>
