<svg width="48" height="48" viewBox="0 0 48 48" fill="none" xmlns="http://www.w3.org/2000/svg">
<path d="M42 18V41.986C42.0018 42.2486 41.9519 42.5091 41.8531 42.7524C41.7543 42.9958 41.6085 43.2173 41.4241 43.4043C41.2397 43.5913 41.0203 43.7402 40.7783 43.8424C40.5364 43.9446 40.2766 43.9982 40.014 44H7.986C7.45963 44 6.95478 43.791 6.58239 43.419C6.21 43.047 6.00053 42.5424 6 42.016V5.984C6 4.91 6.894 4 7.996 4H28V16C28 16.5304 28.2107 17.0391 28.5858 17.4142C28.9609 17.7893 29.4696 18 30 18H42ZM42 14H32V4.006L42 14ZM16 14V18H22V14H16ZM16 22V26H32V22H16ZM16 30V34H32V30H16Z" fill="#FF0F00"/>
</svg>
