<svg width="28" height="28" viewBox="0 0 28 28" fill="none" xmlns="http://www.w3.org/2000/svg">
<path d="M25.6668 10.043V19.542C25.6669 20.5105 25.2964 21.4423 24.6312 22.1463C23.9661 22.8502 23.0568 23.273 22.0898 23.3278L21.8752 23.3337H6.12516C5.15667 23.3337 4.22486 22.9632 3.52089 22.298C2.81692 21.6329 2.39416 20.7236 2.33933 19.7567L2.3335 19.542V10.043L13.5942 15.9417C13.7194 16.0073 13.8587 16.0416 14.0002 16.0416C14.1416 16.0416 14.2809 16.0073 14.4062 15.9417L25.6668 10.043ZM6.12516 4.66699H21.8752C22.815 4.66688 23.7214 5.01582 24.4185 5.64614C25.1157 6.27645 25.5539 7.14322 25.6482 8.07832L14.0002 14.18L2.35216 8.07832C2.44261 7.18036 2.85039 6.3441 3.5022 5.71987C4.15402 5.09564 5.00712 4.72438 5.90816 4.67283L6.12516 4.66699H21.8752H6.12516Z" fill="#0072BC"/>
</svg>
