<svg width="40" height="34" viewBox="0 0 40 34" fill="none" xmlns="http://www.w3.org/2000/svg">
<path d="M36.5 0.5H3.5C2.70463 0.50091 1.9421 0.817272 1.37968 1.37968C0.817272 1.9421 0.50091 2.70463 0.5 3.5V30.5C0.50091 31.2954 0.817272 32.0579 1.37968 32.6203C1.9421 33.1827 2.70463 33.4991 3.5 33.5H36.5C37.2954 33.4991 38.0579 33.1827 38.6203 32.6203C39.1827 32.0579 39.4991 31.2954 39.5 30.5V3.5C39.4991 2.70463 39.1827 1.9421 38.6203 1.37968C38.0579 0.817272 37.2954 0.50091 36.5 0.5ZM20 18.5C17.6139 18.4973 15.3262 17.5482 13.639 15.861C11.9518 14.1738 11.0027 11.8861 11 9.5C11 9.10218 11.158 8.72064 11.4393 8.43934C11.7206 8.15804 12.1022 8 12.5 8C12.8978 8 13.2794 8.15804 13.5607 8.43934C13.842 8.72064 14 9.10218 14 9.5C14 11.0913 14.6321 12.6174 15.7574 13.7426C16.8826 14.8679 18.4087 15.5 20 15.5C21.5913 15.5 23.1174 14.8679 24.2426 13.7426C25.3679 12.6174 26 11.0913 26 9.5C26 9.10218 26.158 8.72064 26.4393 8.43934C26.7206 8.15804 27.1022 8 27.5 8C27.8978 8 28.2794 8.15804 28.5607 8.43934C28.842 8.72064 29 9.10218 29 9.5C28.9973 11.8861 28.0482 14.1738 26.361 15.861C24.6738 17.5482 22.3861 18.4973 20 18.5Z" fill="#FF0F00"/>
</svg>
