<svg width="60" height="51" viewBox="0 0 60 51" fill="none" xmlns="http://www.w3.org/2000/svg">
<path d="M43.8932 19L32.2132 1.50666C31.7065 0.759991 30.8532 0.386658 29.9998 0.386658C29.1465 0.386658 28.2932 0.759991 27.7865 1.53332L16.1065 19H3.33317C1.8665 19 0.666504 20.2 0.666504 21.6667C0.666504 21.9067 0.69317 22.1467 0.77317 22.3867L7.5465 47.1067C8.15984 49.3467 10.2132 51 12.6665 51H47.3332C49.7865 51 51.8398 49.3467 52.4798 47.1067L59.2532 22.3867L59.3332 21.6667C59.3332 20.2 58.1332 19 56.6665 19H43.8932ZM21.9998 19L29.9998 7.26666L37.9998 19H21.9998ZM29.9998 40.3333C27.0665 40.3333 24.6665 37.9333 24.6665 35C24.6665 32.0667 27.0665 29.6667 29.9998 29.6667C32.9332 29.6667 35.3332 32.0667 35.3332 35C35.3332 37.9333 32.9332 40.3333 29.9998 40.3333Z" fill="#FF0F00"/>
</svg>
