<svg width="36" height="36" viewBox="0 0 36 36" fill="none" xmlns="http://www.w3.org/2000/svg">
<path d="M33 0H3C2.20463 0.000909634 1.4421 0.317272 0.879684 0.879684C0.317272 1.4421 0.000909634 2.20463 0 3V33C0.000909634 33.7954 0.317272 34.5579 0.879684 35.1203C1.4421 35.6827 2.20463 35.9991 3 36H33C33.7954 35.9991 34.5579 35.6827 35.1203 35.1203C35.6827 34.5579 35.9991 33.7954 36 33V3C35.9991 2.20463 35.6827 1.4421 35.1203 0.879684C34.5579 0.317272 33.7954 0.000909634 33 0ZM9 33H3V3H9V33ZM27 22.5H15C14.6022 22.5 14.2206 22.342 13.9393 22.0607C13.658 21.7794 13.5 21.3978 13.5 21C13.5 20.6022 13.658 20.2206 13.9393 19.9393C14.2206 19.658 14.6022 19.5 15 19.5H27C27.3978 19.5 27.7794 19.658 28.0607 19.9393C28.342 20.2206 28.5 20.6022 28.5 21C28.5 21.3978 28.342 21.7794 28.0607 22.0607C27.7794 22.342 27.3978 22.5 27 22.5ZM27 16.5H15C14.6022 16.5 14.2206 16.342 13.9393 16.0607C13.658 15.7794 13.5 15.3978 13.5 15C13.5 14.6022 13.658 14.2206 13.9393 13.9393C14.2206 13.658 14.6022 13.5 15 13.5H27C27.3978 13.5 27.7794 13.658 28.0607 13.9393C28.342 14.2206 28.5 14.6022 28.5 15C28.5 15.3978 28.342 15.7794 28.0607 16.0607C27.7794 16.342 27.3978 16.5 27 16.5Z" fill="#FF0F00"/>
</svg>
