<svg width="28" height="28" viewBox="0 0 28 28" fill="none" xmlns="http://www.w3.org/2000/svg">
<path d="M17.7887 18.795L19.7487 16.835C20.0127 16.5743 20.3467 16.3959 20.7101 16.3213C21.0736 16.2467 21.4509 16.2793 21.7962 16.415L24.1849 17.3688C24.5339 17.5104 24.8331 17.7522 25.0449 18.0636C25.2566 18.3751 25.3715 18.7422 25.3749 19.1188V23.4938C25.3729 23.75 25.319 24.0031 25.2166 24.2379C25.1142 24.4727 24.9653 24.6844 24.7789 24.8602C24.5925 25.0359 24.3725 25.1721 24.1321 25.2606C23.8916 25.3491 23.6358 25.388 23.3799 25.375C6.64118 24.3338 3.26368 10.1588 2.62493 4.73379C2.59528 4.46738 2.62237 4.19772 2.70443 3.94253C2.78648 3.68735 2.92163 3.45243 3.10099 3.25323C3.28035 3.05403 3.49986 2.89506 3.74507 2.78679C3.99028 2.67852 4.25564 2.62339 4.52368 2.62504H8.74993C9.12707 2.62615 9.49524 2.74007 9.80711 2.95214C10.119 3.1642 10.3603 3.46472 10.4999 3.81504L11.4537 6.20379C11.5939 6.54772 11.6297 6.92535 11.5565 7.2895C11.4834 7.65364 11.3046 7.98817 11.0424 8.25129L9.08243 10.2113C9.08243 10.2113 10.2112 17.85 17.7887 18.795Z" fill="#0072BC"/>
</svg>
