<svg width="18" height="16" viewBox="0 0 18 16" fill="none" xmlns="http://www.w3.org/2000/svg">
<path d="M2.99768 6.30022C3.35663 5.04839 4.10267 3.94234 5.12888 3.14058C6.15508 2.33882 7.40876 1.88252 8.71024 1.83707C10.0117 1.79162 11.2942 2.15936 12.3738 2.88758C13.4534 3.6158 14.2748 4.66712 14.7202 5.89086" stroke="black" stroke-opacity="0.4" stroke-linecap="round" stroke-linejoin="round"/>
<path d="M14.6071 10.3973C14.1432 11.4967 13.3703 12.438 12.3821 13.1068C11.3939 13.7757 10.2328 14.1435 9.03975 14.1656C7.84666 14.1877 6.67278 13.8632 5.66047 13.2314C4.64816 12.5996 3.84091 11.6877 3.3366 10.6062" stroke="black" stroke-opacity="0.4" stroke-linecap="round" stroke-linejoin="round"/>
<path d="M4.80933 9.95648L3.09803 10.2103L2.27426 11.7316" stroke="black" stroke-opacity="0.4" stroke-linecap="round" stroke-linejoin="round"/>
<path d="M13.089 6.48657L14.8003 6.2328L15.6241 4.7115" stroke="black" stroke-opacity="0.4" stroke-linecap="round" stroke-linejoin="round"/>
</svg>
