<svg width="48" height="48" viewBox="0 0 48 48" fill="none" xmlns="http://www.w3.org/2000/svg">
<path d="M32.9992 21.7502C32.9992 23.9752 32.3394 26.1503 31.1033 28.0003C29.8671 29.8504 28.1101 31.2923 26.0544 32.1438C23.9987 32.9953 21.7367 33.2181 19.5545 32.784C17.3722 32.3499 15.3676 31.2784 13.7943 29.7051C12.2209 28.1318 11.1495 26.1272 10.7154 23.9449C10.2813 21.7626 10.5041 19.5006 11.3556 17.445C12.2071 15.3893 13.649 13.6323 15.4991 12.3961C17.3491 11.16 19.5242 10.5002 21.7492 10.5002C24.7319 10.5035 27.5914 11.6899 29.7004 13.7989C31.8095 15.908 32.9958 18.7675 32.9992 21.7502ZM43.0589 43.061C42.7775 43.3423 42.396 43.5003 41.9981 43.5003C41.6003 43.5003 41.2187 43.3423 40.9374 43.061L32.8331 34.9567C29.4244 37.8185 25.0425 39.2539 20.6013 38.9636C16.16 38.6734 12.0022 36.6798 8.99498 33.3987C5.98775 30.1176 4.36321 25.8023 4.46016 21.3526C4.5571 16.9029 6.36804 12.6624 9.51532 9.51542C12.6626 6.36841 16.9033 4.55784 21.3529 4.46128C25.8026 4.36473 30.1178 5.98963 33.3987 8.99715C36.6795 12.0047 38.6727 16.1626 38.9626 20.6039C39.2524 25.0452 37.8166 29.4269 34.9546 32.8354L43.0589 40.9397C43.3401 41.221 43.4982 41.6025 43.4982 42.0003C43.4982 42.3981 43.3401 42.7797 43.0589 43.061ZM21.7492 36.0002C24.5676 36.0002 27.3227 35.1644 29.6661 33.5986C32.0095 32.0328 33.836 29.8072 34.9145 27.2034C35.9931 24.5995 36.2752 21.7343 35.7254 18.9701C35.1756 16.2059 33.8184 13.6668 31.8255 11.6739C29.8326 9.68098 27.2935 8.3238 24.5293 7.77396C21.765 7.22412 18.8998 7.50632 16.296 8.58487C13.6921 9.66342 11.4666 11.4899 9.90078 13.8333C8.33497 16.1767 7.49922 18.9318 7.49922 21.7502C7.50349 25.5282 9.0062 29.1502 11.6777 31.8217C14.3491 34.4932 17.9712 35.9959 21.7492 36.0002Z" fill="#FF0F00"/>
</svg>
