<svg width="48" height="48" viewBox="0 0 48 48" fill="none" xmlns="http://www.w3.org/2000/svg">
<path d="M40.6998 27.5367L43.1543 14.0366C43.2329 13.6043 43.2155 13.16 43.1035 12.7351C42.9914 12.3102 42.7874 11.9151 42.5058 11.5778C42.2243 11.2404 41.8721 10.969 41.4741 10.7828C41.0761 10.5966 40.642 10.5 40.2026 10.5H8.75189L7.83619 5.46341C7.7108 4.77202 7.34659 4.14663 6.80712 3.69639C6.26764 3.24616 5.58719 2.99969 4.88452 3H1.5C1.10218 3 0.720644 3.15804 0.43934 3.43934C0.158035 3.72064 0 4.10218 0 4.5C0 4.89783 0.158035 5.27936 0.43934 5.56066C0.720644 5.84197 1.10218 6 1.5 6H4.88452L9.89118 33.5366C9.93594 33.7802 10.0107 34.0173 10.1137 34.2425C9.3648 34.8753 8.80807 35.7052 8.50665 36.6382C8.20523 37.5712 8.17117 38.57 8.40833 39.5214C8.64549 40.4727 9.14438 41.3386 9.84847 42.021C10.5526 42.7033 11.4337 43.1748 12.392 43.382C13.3504 43.5892 14.3476 43.5238 15.2707 43.1933C16.1938 42.8628 17.0058 42.2803 17.6148 41.5119C18.2238 40.7435 18.6054 39.8198 18.7163 38.8456C18.8272 37.8714 18.6631 36.8857 18.2424 36H31.2576C30.7702 37.0277 30.6298 38.186 30.8575 39.3004C31.0852 40.4148 31.6688 41.4251 32.5203 42.1793C33.3719 42.9334 34.4453 43.3905 35.5791 43.4818C36.7129 43.5732 37.8457 43.2938 38.8069 42.6857C39.7682 42.0776 40.506 41.1737 40.9091 40.1101C41.3123 39.0465 41.3591 37.8807 41.0425 36.7882C40.7259 35.6957 40.063 34.7356 39.1536 34.0524C38.2442 33.3692 37.1375 32.9999 36 33H12.8428L12.2974 30H37.7481C38.4508 30.0003 39.1312 29.7539 39.6707 29.3036C40.2101 28.8534 40.5744 28.2281 40.6998 27.5367Z" fill="#FF0F00"/>
</svg>
