<svg width="48" height="48" viewBox="0 0 48 48" fill="none" xmlns="http://www.w3.org/2000/svg">
<path d="M40.5 7.5H7.5C6.70463 7.50091 5.9421 7.81727 5.37968 8.37968C4.81727 8.9421 4.50091 9.70463 4.5 10.5V37.5C4.50091 38.2954 4.81727 39.0579 5.37968 39.6203C5.9421 40.1827 6.70463 40.4991 7.5 40.5H40.5C41.2954 40.4991 42.0579 40.1827 42.6203 39.6203C43.1827 39.0579 43.4991 38.2954 43.5 37.5V10.5C43.4991 9.70463 43.1827 8.9421 42.6203 8.37968C42.0579 7.81727 41.2954 7.50091 40.5 7.5ZM24 25.5C21.6139 25.4973 19.3262 24.5482 17.639 22.861C15.9518 21.1738 15.0027 18.8861 15 16.5C15 16.1022 15.158 15.7206 15.4393 15.4393C15.7206 15.158 16.1022 15 16.5 15C16.8978 15 17.2794 15.158 17.5607 15.4393C17.842 15.7206 18 16.1022 18 16.5C18 18.0913 18.6321 19.6174 19.7574 20.7426C20.8826 21.8679 22.4087 22.5 24 22.5C25.5913 22.5 27.1174 21.8679 28.2426 20.7426C29.3679 19.6174 30 18.0913 30 16.5C30 16.1022 30.158 15.7206 30.4393 15.4393C30.7206 15.158 31.1022 15 31.5 15C31.8978 15 32.2794 15.158 32.5607 15.4393C32.842 15.7206 33 16.1022 33 16.5C32.9973 18.8861 32.0482 21.1738 30.361 22.861C28.6738 24.5482 26.3861 25.4973 24 25.5Z" fill="#FF0F00"/>
</svg>
