<svg width="66" height="66" viewBox="0 0 66 66" fill="none" xmlns="http://www.w3.org/2000/svg">
<path fill-rule="evenodd" clip-rule="evenodd" d="M34.7156 1.19625C33.9391 -0.0997183 32.0611 -0.0997171 31.2845 1.19625L25.2722 11.2296C24.8193 11.9853 23.9252 12.3557 23.0705 12.1415L11.7245 9.29826C10.259 8.931 8.9311 10.2589 9.29835 11.7244L12.1416 23.0704C12.3558 23.9251 11.9854 24.8192 11.2296 25.2721L1.19634 31.2844C-0.0996267 32.061 -0.0996256 33.939 1.19634 34.7156L11.2296 40.7279C11.9854 41.1808 12.3558 42.0749 12.1416 42.9296L9.29835 54.2755C8.9311 55.7411 10.259 57.069 11.7245 56.7017L23.0705 53.8584C23.9252 53.6443 24.8193 54.0146 25.2722 54.7704L31.2845 64.8037C32.0611 66.0997 33.9391 66.0997 34.7156 64.8037L40.7279 54.7704C41.1808 54.0146 42.075 53.6443 42.9297 53.8584L54.2756 56.7017C55.7411 57.069 57.0691 55.7411 56.7018 54.2755L53.8585 42.9296C53.6443 42.0749 54.0147 41.1808 54.7705 40.7279L64.8038 34.7155C66.0998 33.939 66.0998 32.061 64.8038 31.2844L54.7705 25.2721C54.0147 24.8192 53.6443 23.9251 53.8585 23.0704L56.7018 11.7244C57.0691 10.2589 55.7411 8.931 54.2756 9.29826L42.9297 12.1415C42.075 12.3557 41.1808 11.9853 40.7279 11.2296L34.7156 1.19625ZM33.0001 43.6667C38.8911 43.6667 43.6667 38.891 43.6667 33C43.6667 27.109 38.8911 22.3333 33.0001 22.3333C27.109 22.3333 22.3334 27.109 22.3334 33C22.3334 38.891 27.109 43.6667 33.0001 43.6667Z" fill="#FF0F00"/>
</svg>
