<svg width="48" height="48" viewBox="0 0 48 48" fill="none" xmlns="http://www.w3.org/2000/svg">
<path d="M46.4995 22.4889C46.4993 22.4732 46.4977 22.4574 46.4971 22.4417C46.4955 22.4 46.4928 22.3586 46.4879 22.3179C46.4857 22.3002 46.4826 22.2826 46.4798 22.265C46.4734 22.2244 46.4656 22.1845 46.456 22.145C46.4521 22.1292 46.4482 22.1135 46.4438 22.0976C46.4312 22.0525 46.4166 22.0082 46.4 21.9649C46.3972 21.9576 46.3956 21.9501 46.3927 21.9429L46.3834 21.9197L46.3814 21.9146L43.7699 15.3858C43.5489 14.828 43.1649 14.3497 42.668 14.0133C42.1712 13.6769 41.5845 13.4981 40.9845 13.5H34.5V12C34.5 11.6022 34.3419 11.2207 34.0606 10.9394C33.7793 10.6581 33.3978 10.5 33 10.5H4.5C3.70463 10.5009 2.9421 10.8173 2.37968 11.3797C1.81727 11.9421 1.50091 12.7046 1.5 13.5V34.5C1.50091 35.2954 1.81727 36.0579 2.37968 36.6203C2.9421 37.1827 3.70463 37.4991 4.5 37.5H6.93988C7.27258 38.788 8.02381 39.9289 9.07551 40.7434C10.1272 41.558 11.4198 42 12.75 42C14.0802 42 15.3728 41.558 16.4245 40.7434C17.4762 39.9289 18.2274 38.788 18.5601 37.5H29.4399C29.7726 38.788 30.5238 39.9289 31.5755 40.7434C32.6272 41.558 33.9198 42 35.25 42C36.5802 42 37.8728 41.558 38.9245 40.7434C39.9762 39.9289 40.7274 38.788 41.0601 37.5H43.5C44.2954 37.4991 45.0579 37.1827 45.6203 36.6203C46.1827 36.0579 46.4991 35.2954 46.5 34.5V22.5C46.5 22.4963 46.4995 22.4927 46.4995 22.4889ZM34.5 16.5H40.9845L42.7844 21H34.5V16.5ZM4.5 13.5H31.5V25.5H4.5V13.5ZM12.75 39C12.1567 39 11.5766 38.8241 11.0833 38.4944C10.5899 38.1648 10.2054 37.6962 9.97836 37.1481C9.7513 36.5999 9.69189 35.9967 9.80765 35.4147C9.9234 34.8328 10.2091 34.2982 10.6287 33.8787C11.0482 33.4591 11.5828 33.1734 12.1647 33.0576C12.7467 32.9419 13.3499 33.0013 13.8981 33.2284C14.4462 33.4554 14.9148 33.8399 15.2444 34.3333C15.5741 34.8266 15.75 35.4067 15.75 36C15.7491 36.7954 15.4327 37.5579 14.8703 38.1203C14.3079 38.6827 13.5454 38.9991 12.75 39ZM35.25 39C34.6567 39 34.0766 38.8241 33.5833 38.4944C33.0899 38.1648 32.7054 37.6962 32.4784 37.1481C32.2513 36.5999 32.1919 35.9967 32.3076 35.4147C32.4234 34.8328 32.7091 34.2982 33.1287 33.8787C33.5482 33.4591 34.0828 33.1734 34.6647 33.0576C35.2467 32.9419 35.8499 33.0013 36.3981 33.2284C36.9462 33.4554 37.4148 33.8399 37.7444 34.3333C38.0741 34.8266 38.25 35.4067 38.25 36C38.2491 36.7954 37.9327 37.5579 37.3703 38.1203C36.8079 38.6827 36.0454 38.9991 35.25 39Z" fill="#FF0F00"/>
</svg>
