<svg width="48" height="48" viewBox="0 0 48 48" fill="none" xmlns="http://www.w3.org/2000/svg">
<path d="M22.7245 29.6151C24.7371 28.2783 26.2658 26.329 27.0844 24.0557C27.903 21.7825 27.968 19.3061 27.2698 16.9931C26.5716 14.68 25.1473 12.6532 23.2076 11.2126C21.2679 9.77201 18.916 8.99414 16.4998 8.99414C14.0837 8.99414 11.7317 9.77201 9.79207 11.2126C7.85239 12.6532 6.42804 14.68 5.72982 16.9931C5.0316 19.3061 5.09661 21.7825 5.91522 24.0557C6.73383 26.329 8.26255 28.2783 10.2751 29.6151C6.84427 30.8807 3.87904 33.1591 1.77248 36.1483C1.61433 36.3729 1.52091 36.6367 1.50242 36.9108C1.48394 37.185 1.54109 37.4589 1.66765 37.7027C1.79421 37.9466 1.98531 38.151 2.2201 38.2937C2.45489 38.4364 2.72436 38.5118 2.9991 38.5118L29.9999 38.5108C30.2747 38.5108 30.5441 38.4353 30.7789 38.2926C31.0137 38.1499 31.2048 37.9455 31.3313 37.7016C31.4578 37.4578 31.515 37.1838 31.4964 36.9097C31.4779 36.6356 31.3845 36.3718 31.2263 36.1472C29.1198 33.1586 26.1549 30.8806 22.7245 29.6151Z" fill="#FF0F00"/>
<path d="M46.5116 36.1472C44.4051 33.1586 41.4402 30.8806 38.0097 29.6152C40.2401 28.1305 41.8674 25.8985 42.5987 23.3209C43.33 20.7433 43.1174 17.9893 41.9991 15.5545C40.8807 13.1197 38.9302 11.164 36.4983 10.0392C34.0665 8.9145 31.3131 8.69461 28.7335 9.41914C28.4994 9.485 28.2847 9.60683 28.1081 9.77412C27.9315 9.94141 27.7982 10.1491 27.7198 10.3794C27.6413 10.6097 27.6201 10.8556 27.6578 11.0959C27.6956 11.3362 27.7912 11.5637 27.9365 11.7589C29.6321 14.0366 30.6069 16.7699 30.7353 19.6066C30.8636 22.4433 30.1396 25.2535 28.6566 27.675C28.4608 27.9944 28.3915 28.3755 28.4625 28.7433C28.5334 29.1112 28.7395 29.4391 29.04 29.6627C29.6088 30.086 30.1559 30.5375 30.6795 31.0155C30.7065 31.0449 30.7338 31.0741 30.7636 31.1018C32.7657 32.9526 34.3883 35.1756 35.5409 37.6465C35.6617 37.9051 35.8537 38.1239 36.0945 38.2772C36.3353 38.4305 36.6148 38.5119 36.9002 38.5119L45.2853 38.5108C45.5601 38.5108 45.8295 38.4353 46.0643 38.2926C46.299 38.1499 46.4901 37.9455 46.6166 37.7016C46.7431 37.4577 46.8002 37.1838 46.7817 36.9097C46.7632 36.6356 46.6698 36.3718 46.5116 36.1472L46.5116 36.1472Z" fill="#FF0F00"/>
</svg>
